# xmcd
#
# Track frame offsets:
#	150
#	6297
#	31112
#	48401
#	63649
#	84340
#	108827
#	129972
#	151064
#	172673
#	195059
#
# Disc length: 2930 seconds
#
# Revision: 1
# Processed by: cddbd v1.5.2PL0 Copyright (c) Steve Scherf et al.
# Submitted via: audiograbber 1.83.01
#
DISCID=6f0b700b
DTITLE=Joe Bonamassa - Different Shades Of Blues
DYEAR=2014
DGENRE=Blues
TTITLE0=Hey Baby (New rising sun)
TTITLE1=Oh Beautiful!
TTITLE2=Love ain't a love song
TTITLE3=Living on the moon
TTITLE4=Heartache follows wherever I go
TTITLE5=Never give all your heart
TTITLE6=I gave up everything for you, 'cept the blues
TTITLE7=Different shades of blue
TTITLE8=Get back my tomorrow
TTITLE9=Trouble Town
TTITLE10=So, what would I do
EXTD=
EXTT0=
EXTT1=
EXTT2=
EXTT3=
EXTT4=
EXTT5=
EXTT6=
EXTT7=
EXTT8=
EXTT9=
EXTT10=
PLAYORDER=
